<svg width="71" height="71" viewBox="0 0 71 71" fill="none" xmlns="http://www.w3.org/2000/svg">
<path d="M17.6777 53.033C7.91458 43.2699 7.91458 27.4408 17.6777 17.6777C27.4408 7.91457 43.2699 7.91457 53.033 17.6777C62.7961 27.4408 62.7961 43.2699 53.033 53.033C43.2699 62.7961 27.4408 62.7961 17.6777 53.033Z" fill="#1a76d2"/>
<path d="M45.349 25.9941L38.2451 47.3059C38.1053 47.7254 37.5298 47.7702 37.3266 47.3775L32.7754 38.5784C32.6328 38.3026 32.408 38.0779 32.1322 37.9352L23.3332 33.384C22.9404 33.1809 22.9853 32.6054 23.4048 32.4656L44.7166 25.3616C45.1074 25.2313 45.4793 25.6032 45.349 25.9941Z" fill="white" stroke="white"/>
</svg>
