<svg width="50" height="50" viewBox="0 0 50 50" fill="none" xmlns="http://www.w3.org/2000/svg">
<path d="M25 50C11.1929 50 1.28392e-06 38.8071 1.88745e-06 25C2.49098e-06 11.1929 11.1929 -1.69631e-06 25 -1.09278e-06C38.8071 -4.89256e-07 50 11.1929 50 25C50 38.8071 38.8071 50 25 50Z" fill="#1a76d2"/>
<path d="M25.4472 13.0125L35.4937 33.1054C35.6914 33.5009 35.3162 33.9396 34.8949 33.8055L25.4548 30.8018C25.1589 30.7077 24.8411 30.7077 24.5452 30.8018L15.1051 33.8055C14.6838 33.9396 14.3086 33.5009 14.5063 33.1054L24.5528 13.0125C24.737 12.6439 25.263 12.6439 25.4472 13.0125Z" fill="white" stroke="white"/>
</svg>
