<svg width="71" height="71" viewBox="0 0 71 71" fill="none" xmlns="http://www.w3.org/2000/svg">
<path d="M53.033 53.033C62.7961 43.2699 62.7961 27.4408 53.033 17.6777C43.2699 7.91457 27.4408 7.91457 17.6777 17.6777C7.91456 27.4408 7.91456 43.2699 17.6777 53.033C27.4408 62.7961 43.2699 62.7961 53.033 53.033Z" fill="#1a76d2"/>
<path d="M25.3617 25.9941L32.4656 47.3059C32.6054 47.7254 33.1809 47.7702 33.3841 47.3775L37.9353 38.5784C38.0779 38.3026 38.3027 38.0779 38.5785 37.9352L47.3775 33.384C47.7703 33.1809 47.7254 32.6054 47.3059 32.4656L25.9941 25.3616C25.6032 25.2313 25.2314 25.6032 25.3617 25.9941Z" fill="white" stroke="white"/>
</svg>
