<svg width="71" height="71" viewBox="0 0 71 71" fill="none" xmlns="http://www.w3.org/2000/svg">
<path d="M17.6777 17.6777C7.91458 27.4408 7.91458 43.2699 17.6777 53.033C27.4408 62.7961 43.2699 62.7961 53.033 53.033C62.7961 43.2699 62.7961 27.4408 53.033 17.6777C43.2699 7.91457 27.4408 7.91457 17.6777 17.6777Z" fill="#1a76d2"/>
<path d="M45.349 44.7166L38.2451 23.4048C38.1053 22.9853 37.5298 22.9405 37.3266 23.3332L32.7754 32.1323C32.6328 32.4081 32.408 32.6328 32.1322 32.7755L23.3332 37.3267C22.9404 37.5298 22.9853 38.1053 23.4048 38.2451L44.7166 45.3491C45.1074 45.4794 45.4793 45.1075 45.349 44.7166Z" fill="white" stroke="white"/>
</svg>
