<svg width="71" height="71" viewBox="0 0 71 71" fill="none" xmlns="http://www.w3.org/2000/svg">
<path d="M53.033 17.6777C62.7961 27.4408 62.7961 43.2699 53.033 53.033C43.2699 62.7961 27.4408 62.7961 17.6777 53.033C7.91456 43.2699 7.91456 27.4408 17.6777 17.6777C27.4408 7.91457 43.2699 7.91457 53.033 17.6777Z" fill="#1a76d2"/>
<path d="M25.3617 44.7166L32.4656 23.4048C32.6054 22.9853 33.1809 22.9405 33.3841 23.3332L37.9353 32.1323C38.0779 32.4081 38.3027 32.6328 38.5785 32.7755L47.3775 37.3267C47.7703 37.5298 47.7254 38.1053 47.3059 38.2451L25.9941 45.3491C25.6032 45.4794 25.2314 45.1075 25.3617 44.7166Z" fill="white" stroke="white"/>
</svg>
