<svg width="50" height="50" viewBox="0 0 50 50" fill="none" xmlns="http://www.w3.org/2000/svg">
<path d="M25 -2.00666e-06C11.1929 -1.40313e-06 1.28392e-06 11.1929 1.88745e-06 25C2.49098e-06 38.8071 11.1929 50 25 50C38.8071 50 50 38.8071 50 25C50 11.1929 38.8071 -2.61019e-06 25 -2.00666e-06Z" fill="#1a76d2"/>
<path d="M25.4472 36.9875L35.4937 16.8946C35.6914 16.4991 35.3162 16.0604 34.8949 16.1945L25.4548 19.1982C25.1589 19.2923 24.8411 19.2923 24.5452 19.1982L15.1051 16.1945C14.6838 16.0604 14.3086 16.4991 14.5063 16.8946L24.5528 36.9875C24.737 37.3561 25.263 37.3561 25.4472 36.9875Z" fill="white" stroke="white"/>
</svg>
