<svg width="50" height="50" viewBox="0 0 50 50" fill="none" xmlns="http://www.w3.org/2000/svg">
<path d="M50 25C50 11.1929 38.8071 -4.12394e-07 25 7.94663e-07C11.1929 2.00172e-06 -3.39263e-06 11.1929 -2.18557e-06 25C-9.78513e-07 38.8071 11.1929 50 25 50C38.8071 50 50 38.8071 50 25Z" fill="#1a76d2"/>
<path d="M13.0125 25.4472L33.1054 35.4937C33.5009 35.6914 33.9396 35.3162 33.8055 34.8949L30.8018 25.4548C30.7077 25.1589 30.7077 24.8411 30.8018 24.5452L33.8055 15.1051C33.9396 14.6838 33.5009 14.3086 33.1054 14.5063L13.0125 24.5528C12.6439 24.737 12.6439 25.263 13.0125 25.4472Z" fill="white" stroke="white"/>
</svg>
