<svg width="205" height="144" viewBox="0 0 205 144" fill="none" xmlns="http://www.w3.org/2000/svg">
<path d="M40.5 140.5H160C160 140.5 177.299 137.25 189.5 122.5C189.5 122.5 203 108.5 201.5 87.5C201 77 199 70 193.5 61.5C188 53 180 47 180 47C158.939 30.6881 130 45.5 130 45.5C130 45.5 132 -0.499887 88.5 4.00005C68.5837 7.44343 57.8017 19.1366 54 31C49.39 45.3859 52.5 58 52.5 58C52.5 58 29.392 55.2781 15.5 69C15.5 69 2.50002 81.5 4.00001 102.5C5.00001 116.5 13.5 126 13.5 126C23.9503 138.763 40.5 140.5 40.5 140.5Z" fill="#56A0EE" stroke="white" stroke-width="6"/>
</svg>
