<svg width="117" height="137" viewBox="0 0 117 137" fill="none" xmlns="http://www.w3.org/2000/svg">
<path d="M93.2683 34.6111C79.041 51.9161 79.8313 68.5 79.8313 68.5C79.8313 68.5 79.0409 85.0839 93.2682 102.389C103.544 115.368 113.028 117.531 116.19 120.415C119.352 123.299 112.238 127.625 112.238 127.625C100.759 134.339 87.7818 136.642 74.2985 136.999C59.3864 137.061 43.9494 134.771 29.2454 124.741C10.0852 111.671 -0.0720178 90.0292 0.000445333 68.5C-0.0720178 46.9708 10.0852 25.3286 29.2455 12.2589C43.9494 2.22888 59.3865 -0.0613723 74.2986 0.00123711C87.7819 0.358143 100.759 2.66075 112.238 9.37477C112.238 9.37477 119.352 13.701 116.19 16.5852C113.028 19.4693 103.544 21.6324 93.2683 34.6111Z" fill="#FFA500"/>
<circle cx="56.5" cy="48.5" r="4.5" fill="#FFC100"/>
<circle cx="69" cy="114" r="5" fill="#FFC100"/>
<circle cx="40" cy="101" r="5" fill="#FFC100"/>
<circle cx="73.5" cy="21.5" r="4.5" fill="#FFC100"/>
<circle cx="43.5" cy="31.5" r="5.5" fill="#FFC100"/>
<circle cx="61.5" cy="79.5" r="5.5" fill="#FFC100"/>
<circle cx="31" cy="67" r="7" fill="#FFC100"/>
</svg>
